Coordinates
version=1
nRows=22
nColumns=24
inDegrees=yes

Units are S.I. units (second, meters, Newtons, ...)
Angles are in degrees.

endheader
time	pelvis_tilt	pelvis_list	pelvis_rotation	pelvis_tx	pelvis_ty	pelvis_tz	hip_flexion_r	hip_adduction_r	hip_rotation_r	knee_angle_r	ankle_angle_r	subtalar_angle_r	mtp_angle_r	hip_flexion_l	hip_adduction_l	hip_rotation_l	knee_angle_l	ankle_angle_l	subtalar_angle_l	mtp_angle_l	lumbar_extension	lumbar_bending	lumbar_rotation
      1.29150000	     -0.53359726	      6.91873217	      1.19256142	      0.16633960	      0.99409927	      0.29640529	     18.11527684	     -8.33187625	     -0.15357475	    -70.53772571	     -2.31257826	     -9.62272137	      3.25053480	      9.82291705	     12.48582981	      2.04046641	    -12.50117124	      1.28865015	    -11.70601084	     -0.44478203	     -0.55042210	     -5.47959740	      2.62760033
      1.29566667	     -0.45143488	      6.84144742	      1.26605587	      0.17143252	      0.99488705	      0.29613062	     18.58272134	     -8.21443095	     -0.05718851	    -70.37742705	     -1.56418765	     -9.85931913	      3.20497745	      9.23393994	     12.42283271	      2.24106037	    -12.21094944	      1.42222873	    -11.67886595	     -0.45438534	     -0.65647150	     -5.39189359	      2.53299593
      1.29983333	     -0.38337751	      6.77955636	      1.33785138	      0.17650717	      0.99560067	      0.29585147	     19.06036327	     -8.11955224	      0.03945317	    -70.17631587	     -0.84128603	    -10.08912239	      3.15326050	      8.66535336	     12.37532630	      2.44061968	    -11.92639266	      1.55506621	    -11.66359982	     -0.46696387	     -0.74390509	     -5.31872696	      2.43939607
      1.30400000	     -0.26542189	      6.71492246	      1.40721790	      0.18160781	      0.99638809	      0.29557381	     19.45800310	     -8.02381676	      0.12051090	    -69.90039655	     -0.17390899	    -10.35565119	      3.02123542	      8.02125974	     12.32506331	      2.67719899	    -11.59980069	      1.65770690	    -11.70734131	     -0.50465258	     -0.88495435	     -5.25204035	      2.28661570
      1.30816667	     -0.23059929	      6.62192849	      1.49363376	      0.18664034	      0.99700801	      0.29529411	     19.94087350	     -7.89613616	      0.19473162	    -69.58323760	      0.51957021	    -10.53012666	      2.96946436	      7.51290336	     12.24125943	      2.88249857	    -11.35956638	      1.80816996	    -11.67603338	     -0.51973530	     -0.93874485	     -5.13581838	      2.23308584
      1.31233333	     -0.14325989	      6.54867555	      1.56550957	      0.19168097	      0.99766634	      0.29504196	     20.35338361	     -7.78835416	      0.27280753	    -69.21471623	      1.17956602	    -10.75783498	      2.88728707	      6.93391539	     12.17453818	      3.09923335	    -11.08895824	      1.94516994	    -11.67024809	     -0.54616318	     -1.05853445	     -5.05425695	      2.13595607
      1.31650000	     -0.09950033	      6.45730079	      1.65362145	      0.19672369	      0.99823404	      0.29476855	     20.79323470	     -7.67123062	      0.32211348	    -68.78667649	      1.80846506	    -10.93870134	      2.83716281	      6.41675905	     12.08720052	      3.29538340	    -10.84728981	      2.09878525	    -11.65410921	     -0.56310480	     -1.10059785	     -4.94249200	      2.06980212
      1.32066667	     -0.03652530	      6.37633406	      1.73233507	      0.20174883	      0.99879217	      0.29450879	     21.20249001	     -7.56297545	      0.37969952	    -68.31358199	      2.42264364	    -11.14517584	      2.78106603	      5.87712714	     12.00855545	      3.50162473	    -10.59763361	      2.24831768	    -11.64501573	     -0.58327856	     -1.18319440	     -4.84332480	      1.98716678
      1.32483333	      0.03520351	      6.29023209	      1.81475840	      0.20675321	      0.99933585	      0.29426876	     21.58380919	     -7.44512893	      0.43373615	    -67.78159104	      3.00361778	    -11.35811145	      2.70988252	      5.33445484	     11.92163506	      3.72017267	    -10.35712186	      2.38984607	    -11.65102482	     -0.61060117	     -1.28448294	     -4.76116617	      1.88941427
      1.32900000	      0.09821687	      6.21264457	      1.89287755	      0.21175206	      0.99981957	      0.29402371	     21.96501875	     -7.34498916	      0.47852651	    -67.20806374	      3.55507428	    -11.55237456	      2.63736448	      4.80362388	     11.84200218	      3.92737991	    -10.11726024	      2.53737995	    -11.65704190	     -0.63945052	     -1.36982407	     -4.66677889	      1.79975710
      1.33316667	      0.19669121	      6.13782361	      1.97409762	      0.21676211	      1.00035564	      0.29376989	     22.28102527	     -7.24936478	      0.51251846	    -66.56402326	      4.01295055	    -11.76751810	      2.30934810	      4.20122457	     11.76685878	      4.21369938	     -9.80808112	      2.59717215	    -11.77756629	     -0.77992478	     -1.50441795	     -4.57555174	      1.60993824
      1.33733333	      0.23585347	      6.06048053	      2.05415653	      0.22173728	      1.00072778	      0.29354946	     22.65941267	     -7.14999723	      0.54897931	    -65.89703447	      4.55613158	    -11.91559936	      2.24340499	      3.72355248	     11.68013096	      4.37370202	     -9.61879613	      2.80457892	    -11.73505698	     -0.80645306	     -1.55376022	     -4.49181549	      1.58626789
      1.34150000	      0.29630425	      5.98874863	      2.13055586	      0.22671512	      1.00111199	      0.29333962	     22.99475741	     -7.05479310	      0.58418225	    -65.17276259	      5.03473153	    -12.09557522	      2.16651614	      3.20948702	     11.59627457	      4.55162464	     -9.39756960	      2.96911361	    -11.70279351	     -0.83855623	     -1.63582706	     -4.41099370	      1.52343723
      1.34566667	      0.33937285	      5.92638352	      2.20756127	      0.23167725	      1.00141353	      0.29312654	     23.33905377	     -6.97492665	      0.61253077	    -64.41226805	      5.47577514	    -12.26703403	      2.08973273	      2.71617259	     11.52204910	      4.73310353	     -9.17758095	      3.13189314	    -11.68942136	     -0.87106723	     -1.70607743	     -4.33864995	      1.45148953
      1.34983333	      0.43224092	      5.88239676	      2.26812663	      0.23665900	      1.00176017	      0.29293680	     23.61077694	     -6.91143828	      0.64671507	    -63.59862160	      5.84599835	    -12.48304173	      1.91032612	      2.14520098	     11.46335400	      4.93127718	     -8.90768270	      3.26448811	    -11.71956191	     -0.95125797	     -1.83347326	     -4.28981342	      1.31595647
      1.35400000	      0.44539934	      5.80767400	      2.35921172	      0.24160095	      1.00197750	      0.29273851	     23.94735656	     -6.82237888	      0.64971356	    -62.73371112	      6.24577777	    -12.59965030	      1.83858810	      1.69964319	     11.37080375	      5.10646944	     -8.71465299	      3.43372460	    -11.69552792	     -0.98201609	     -1.86775836	     -4.20578374	      1.27917083
      1.35816667	      0.49129126	      5.74245518	      2.43590692	      0.24656466	      1.00220719	      0.29255418	     24.22901002	     -6.73971463	      0.65883327	    -61.82005484	      6.60231086	    -12.76474143	      1.75821765	      1.20555567	     11.28475532	      5.27897820	     -8.49551306	      3.59710748	    -11.67088922	     -1.01594709	     -1.94003612	     -4.13292711	      1.21095474
      1.36233333	      0.58069299	      5.71204049	      2.49119017	      0.25152609	      1.00244444	      0.29240424	     24.45341701	     -6.68656002	      0.68821000	    -60.86879396	      6.87006902	    -12.96577098	      1.54412240	      0.64167775	     11.23215602	      5.46750051	     -8.22675234	      3.72057301	    -11.68454604	     -1.11150218	     -2.06649781	     -4.10362682	      1.07937007
      1.36650000	      0.54212296	      5.69236943	      2.55655730	      0.25646364	      1.00244719	      0.29223769	     24.81695918	     -6.65709061	      0.71078009	    -59.90131437	      7.14366116	    -13.03796938	      1.50545721	      0.24411316	     11.19477152	      5.61054241	     -8.01148365	      3.89816179	    -11.62748734	     -1.12533738	     -2.01989390	     -4.07679036	      1.06073625
      1.37066667	      0.65854180	      5.63390459	      2.63585769	      0.26143913	      1.00269255	      0.29208714	     24.95463154	     -6.58639007	      0.67755173	    -58.84070024	      7.43005746	    -13.26125803	      1.35785943	     -0.33339815	     11.10290360	      5.76987849	     -7.77792196	      4.04793275	    -11.63194374	     -1.18913768	     -2.18190440	     -4.01712047	      0.95187686
      1.37483333	      0.65665532	      5.58816268	      2.72222634	      0.26635955	      1.00270940	      0.29194231	     25.22114598	     -6.52916355	      0.66104786	    -57.76088011	      7.68388100	    -13.37122195	      1.27711753	     -0.76134347	     11.02946079	      5.93400219	     -7.58171864	      4.20091888	    -11.59368163	     -1.22185528	     -2.20817000	     -3.97047214	      0.90554077
      1.37900000	      0.68763146	      5.55850815	      2.78937355	      0.27130565	      1.00272908	      0.29182283	     25.43857452	     -6.48913221	      0.63753363	    -56.64809389	      7.88675883	    -13.52142501	      1.17054957	     -1.24521244	     10.96850531	      6.07517422	     -7.34248819	      4.35730647	    -11.56277354	     -1.26528028	     -2.27175678	     -3.95067869	      0.82734412
